<mxGraphModel>
  <root>
    <mxCell id="0" />
    <mxCell id="1" parent="0" />
    <mxCell id="2" value="GSM Booking" style="swimlane;startSize=30;horizontal=1;" vertex="1" parent="1">
      <mxGeometry x="0" y="0" width="2000" height="800" as="geometry" />
    </mxCell>
    <mxCell id="3" value="User" style="shape=note;whiteSpace=wrap;html=1;backgroundOutline=1;darkOpacity=0.05;fillColor=#fee750;strokeColor=none;fontSize=16;fontStyle=0;rotation=0;shadow=1;" vertex="1" parent="2">
      <mxGeometry x="100" y="100" width="120" height="120" as="geometry" />
    </mxCell>
    <mxCell id="4" value="User" style="shape=note;whiteSpace=wrap;html=1;backgroundOutline=1;darkOpacity=0.05;fillColor=#fee750;strokeColor=none;fontSize=16;fontStyle=0;rotation=0;shadow=1;" vertex="1" parent="2">
      <mxGeometry x="100" y="250" width="120" height="120" as="geometry" />
    </mxCell>
    <mxCell id="5" value="User" style="shape=note;whiteSpace=wrap;html=1;backgroundOutline=1;darkOpacity=0.05;fillColor=#fee750;strokeColor=none;fontSize=16;fontStyle=0;rotation=0;shadow=1;" vertex="1" parent="2">
      <mxGeometry x="100" y="400" width="120" height="120" as="geometry" />
    </mxCell>
    <mxCell id="6" value="Offer" style="shape=note;whiteSpace=wrap;html=1;backgroundOutline=1;darkOpacity=0.05;fillColor=#b0deb3;strokeColor=none;fontSize=16;fontStyle=0;rotation=0;shadow=1;" vertex="1" parent="2">
      <mxGeometry x="400" y="100" width="120" height="120" as="geometry" />
    </mxCell>
    <mxCell id="7" value="Booking" style="shape=note;whiteSpace=wrap;html=1;backgroundOutline=1;darkOpacity=0.05;fillColor=#b0deb3;strokeColor=none;fontSize=16;fontStyle=0;rotation=0;shadow=1;" vertex="1" parent="2">
      <mxGeometry x="400" y="250" width="120" height="120" as="geometry" />
    </mxCell>
    <mxCell id="8" value="Request Offer" style="shape=note;whiteSpace=wrap;html=1;backgroundOutline=1;darkOpacity=0.05;fillColor=#a7c5fc;strokeColor=none;fontSize=16;fontStyle=0;rotation=0;shadow=1;" vertex="1" parent="2">
      <mxGeometry x="250" y="100" width="120" height="120" as="geometry" />
    </mxCell>
    <mxCell id="9" value="Submit Booking" style="shape=note;whiteSpace=wrap;html=1;backgroundOutline=1;darkOpacity=0.05;fillColor=#a7c5fc;strokeColor=none;fontSize=16;fontStyle=0;rotation=0;shadow=1;" vertex="1" parent="2">
      <mxGeometry x="250" y="250" width="120" height="120" as="geometry" />
    </mxCell>
    <mxCell id="10" value="Match Driver" style="shape=note;whiteSpace=wrap;html=1;backgroundOutline=1;darkOpacity=0.05;fillColor=#a7c5fc;strokeColor=none;fontSize=16;fontStyle=0;rotation=0;shadow=1;" vertex="1" parent="2">
      <mxGeometry x="250" y="400" width="120" height="120" as="geometry" />
    </mxCell>
    <mxCell id="11" value="Cancel Booking" style="shape=note;whiteSpace=wrap;html=1;backgroundOutline=1;darkOpacity=0.05;fillColor=#a7c5fc;strokeColor=none;fontSize=16;fontStyle=0;rotation=0;shadow=1;" vertex="1" parent="2">
      <mxGeometry x="250" y="550" width="120" height="120" as="geometry" />
    </mxCell>
    <mxCell id="12" value="To calculate fare, information below must be provided: pick- up location, drop- oﬀ location, payment method, service type." style="shape=note;whiteSpace=wrap;html=1;backgroundOutline=1;darkOpacity=0.05;fillColor=#fef5b2;strokeColor=none;fontSize=16;fontStyle=0;rotation=0;shadow=1;" vertex="1" parent="2">
      <mxGeometry x="550" y="100" width="240" height="180" as="geometry" />
    </mxCell>
    <mxCell id="13" value="user accept the oﬀer and start to booking\n- user can add a message to driver" style="shape=note;whiteSpace=wrap;html=1;backgroundOutline=1;darkOpacity=0.05;fillColor=#fef5b2;strokeColor=none;fontSize=16;fontStyle=0;rotation=0;shadow=1;" vertex="1" parent="2">
      <mxGeometry x="550" y="250" width="240" height="180" as="geometry" />
    </mxCell>
    <mxCell id="14" value="Assign Driver Process" style="shape=note;whiteSpace=wrap;html=1;backgroundOutline=1;darkOpacity=0.05;fillColor=#da99e6;strokeColor=none;fontSize=16;fontStyle=0;rotation=0;shadow=1;" vertex="1" parent="2">
      <mxGeometry x="550" y="400" width="120" height="120" as="geometry" />
    </mxCell>
    <mxCell id="15" value="Allocation algorithms will strive to\n- meet passenger and driver needs\n- ensure fairness for drivers" style="shape=note;whiteSpace=wrap;html=1;backgroundOutline=1;darkOpacity=0.05;fillColor=#da99e6;strokeColor=none;fontSize=16;fontStyle=0;rotation=0;shadow=1;" vertex="1" parent="2">
      <mxGeometry x="700" y="400" width="240" height="180" as="geometry" />
    </mxCell>
    <mxCell id="16" value="users can cancel the booking anytime before the driver accept the booking without any cancellation fee" style="shape=note;whiteSpace=wrap;html=1;backgroundOutline=1;darkOpacity=0.05;fillColor=#da99e6;strokeColor=none;fontSize=16;fontStyle=0;rotation=0;shadow=1;" vertex="1" parent="2">
      <mxGeometry x="550" y="550" width="240" height="180" as="geometry" />
    </mxCell>
    <mxCell id="17" value="Offer Sent" style="shape=note;whiteSpace=wrap;html=1;backgroundOutline=1;darkOpacity=0.05;fillColor=#feae57;strokeColor=none;fontSize=16;fontStyle=0;rotation=0;shadow=1;" vertex="1" parent="2">
      <mxGeometry x="850" y="100" width="120" height="120" as="geometry" />
    </mxCell>
    <mxCell id="18" value="Booking Submitted" style="shape=note;whiteSpace=wrap;html=1;backgroundOutline=1;darkOpacity=0.05;fillColor=#feae57;strokeColor=none;fontSize=16;fontStyle=0;rotation=0;shadow=1;" vertex="1" parent="2">
      <mxGeometry x="850" y="250" width="120" height="120" as="geometry" />
    </mxCell>
    <mxCell id="19" value="Driver Matched" style="shape=note;whiteSpace=wrap;html=1;backgroundOutline=1;darkOpacity=0.05;fillColor=#feae57;strokeColor=none;fontSize=16;fontStyle=0;rotation=0;shadow=1;" vertex="1" parent="2">
      <mxGeometry x="950" y="400" width="120" height="120" as="geometry" />
    </mxCell>
    <mxCell id="20" value="Booking Cancelled" style="shape=note;whiteSpace=wrap;html=1;backgroundOutline=1;darkOpacity=0.05;fillColor=#feae57;strokeColor=none;fontSize=16;fontStyle=0;rotation=0;shadow=1;" vertex="1" parent="2">
      <mxGeometry x="850" y="550" width="120" height="120" as="geometry" />
    </mxCell>
    <mxCell id="21" style="edgeStyle=orthogonalEdgeStyle;rounded=0;orthogonalLoop=1;jettySize=auto;html=1;" edge="1" parent="2" source="3" target="8">
      <mxGeometry relative="1" as="geometry" />
    </mxCell>
    <mxCell id="22" style="edgeStyle=orthogonalEdgeStyle;rounded=0;orthogonalLoop=1;jettySize=auto;html=1;" edge="1" parent="2" source="8" target="12">
      <mxGeometry relative="1" as="geometry" />
    </mxCell>
    <mxCell id="23" style="edgeStyle=orthogonalEdgeStyle;rounded=0;orthogonalLoop=1;jettySize=auto;html=1;" edge="1" parent="2" source="12" target="17">
      <mxGeometry relative="1" as="geometry" />
    </mxCell>
    <mxCell id="24" style="edgeStyle=orthogonalEdgeStyle;rounded=0;orthogonalLoop=1;jettySize=auto;html=1;" edge="1" parent="2" source="17" target="6">
      <mxGeometry relative="1" as="geometry" />
    </mxCell>
    <mxCell id="25" style="edgeStyle=orthogonalEdgeStyle;rounded=0;orthogonalLoop=1;jettySize=auto;html=1;" edge="1" parent="2" source="6" target="4">
      <mxGeometry relative="1" as="geometry" />
    </mxCell>
    <mxCell id="26" style="edgeStyle=orthogonalEdgeStyle;rounded=0;orthogonalLoop=1;jettySize=auto;html=1;" edge="1" parent="2" source="4" target="9">
      <mxGeometry relative="1" as="geometry" />
    </mxCell>
    <mxCell id="27" style="edgeStyle=orthogonalEdgeStyle;rounded=0;orthogonalLoop=1;jettySize=auto;html=1;" edge="1" parent="2" source="9" target="13">
      <mxGeometry relative="1" as="geometry" />
    </mxCell>
    <mxCell id="28" style="edgeStyle=orthogonalEdgeStyle;rounded=0;orthogonalLoop=1;jettySize=auto;html=1;" edge="1" parent="2" source="13" target="18">
      <mxGeometry relative="1" as="geometry" />
    </mxCell>
    <mxCell id="29" style="edgeStyle=orthogonalEdgeStyle;rounded=0;orthogonalLoop=1;jettySize=auto;html=1;" edge="1" parent="2" source="18" target="7">
      <mxGeometry relative="1" as="geometry" />
    </mxCell>
    <mxCell id="30" style="edgeStyle=orthogonalEdgeStyle;rounded=0;orthogonalLoop=1;jettySize=auto;html=1;" edge="1" parent="2" source="18" target="14">
      <mxGeometry relative="1" as="geometry" />
    </mxCell>
    <mxCell id="31" style="edgeStyle=orthogonalEdgeStyle;rounded=0;orthogonalLoop=1;jettySize=auto;html=1;" edge="1" parent="2" source="14" target="10">
      <mxGeometry relative="1" as="geometry" />
    </mxCell>
    <mxCell id="32" style="edgeStyle=orthogonalEdgeStyle;rounded=0;orthogonalLoop=1;jettySize=auto;html=1;" edge="1" parent="2" source="10" target="15">
      <mxGeometry relative="1" as="geometry" />
    </mxCell>
    <mxCell id="33" style="edgeStyle=orthogonalEdgeStyle;rounded=0;orthogonalLoop=1;jettySize=auto;html=1;" edge="1" parent="2" source="15" target="19">
      <mxGeometry relative="1" as="geometry" />
    </mxCell>
    <mxCell id="34" style="edgeStyle=orthogonalEdgeStyle;rounded=0;orthogonalLoop=1;jettySize=auto;html=1;" edge="1" parent="2" source="7" target="5">
      <mxGeometry relative="1" as="geometry" />
    </mxCell>
    <mxCell id="35" style="edgeStyle=orthogonalEdgeStyle;rounded=0;orthogonalLoop=1;jettySize=auto;html=1;" edge="1" parent="2" source="5" target="11">
      <mxGeometry relative="1" as="geometry" />
    </mxCell>
    <mxCell id="36" style="edgeStyle=orthogonalEdgeStyle;rounded=0;orthogonalLoop=1;jettySize=auto;html=1;" edge="1" parent="2" source="11" target="16">
      <mxGeometry relative="1" as="geometry" />
    </mxCell>
    <mxCell id="37" style="edgeStyle=orthogonalEdgeStyle;rounded=0;orthogonalLoop=1;jettySize=auto;html=1;" edge="1" parent="2" source="16" target="20">
      <mxGeometry relative="1" as="geometry" />
    </mxCell>
  </root>
</mxGraphModel>